<svg xmlns="http://www.w3.org/2000/svg" xmlns:xlink="http://www.w3.org/1999/xlink" width="500" zoomAndPan="magnify" viewBox="0 0 375 374.999991" height="500" preserveAspectRatio="xMidYMid meet" version="1.0"><defs><g/><clipPath id="eb2dbb5f30"><rect x="0" width="375" y="0" height="375"/></clipPath></defs><g transform="matrix(1, 0, 0, 1, 0, 0)"><g clip-path="url(#eb2dbb5f30)"><g fill="#0cc0df" fill-opacity="1"><g transform="translate(-9.922312, 297.790224)"><g><path d="M 12.078125 -217.4375 L 119.421875 -217.4375 C 112.742188 -215.363281 107.445312 -212.945312 103.53125 -210.1875 C 99.625 -207.425781 96.863281 -203.515625 95.25 -198.453125 C 93.644531 -193.390625 92.84375 -186.144531 92.84375 -176.71875 L 92.84375 -115.625 L 167.046875 -186.375 C 174.867188 -193.96875 178.78125 -200.179688 178.78125 -205.015625 C 178.78125 -210.535156 173.71875 -214.675781 163.59375 -217.4375 L 286.125 -217.4375 C 279.90625 -216.0625 274.664062 -214.453125 270.40625 -212.609375 C 266.15625 -210.765625 261.957031 -208.234375 257.8125 -205.015625 C 253.675781 -201.796875 248.5 -197.191406 242.28125 -191.203125 L 173.609375 -124.59375 L 252.984375 -31.0625 C 261.035156 -22.09375 268.222656 -15.191406 274.546875 -10.359375 C 280.878906 -5.523438 288.648438 -2.070312 297.859375 0 L 176.015625 0 C 187.066406 -2.988281 192.59375 -7.472656 192.59375 -13.453125 C 192.59375 -18.054688 189.484375 -23.8125 183.265625 -30.71875 L 134.609375 -86.625 L 92.84375 -45.90625 L 92.84375 -40.734375 C 92.84375 -31.296875 93.644531 -24.046875 95.25 -18.984375 C 96.863281 -13.921875 99.625 -10.066406 103.53125 -7.421875 C 107.445312 -4.773438 112.742188 -2.300781 119.421875 0 L 12.078125 0 C 18.753906 -2.300781 23.988281 -4.773438 27.78125 -7.421875 C 31.582031 -10.066406 34.285156 -13.921875 35.890625 -18.984375 C 37.503906 -24.046875 38.3125 -31.296875 38.3125 -40.734375 L 38.3125 -176.71875 C 38.3125 -186.144531 37.503906 -193.390625 35.890625 -198.453125 C 34.285156 -203.515625 31.582031 -207.425781 27.78125 -210.1875 C 23.988281 -212.945312 18.753906 -215.363281 12.078125 -217.4375 Z M 12.078125 -217.4375 "/></g></g></g><g fill="#0cc0df" fill-opacity="1"><g transform="translate(290.678295, 297.790224)"><g><path d="M 17.25 -26.578125 C 17.25 -36.015625 19.894531 -43.320312 25.1875 -48.5 C 30.488281 -53.675781 37.738281 -56.265625 46.9375 -56.265625 C 56.375 -56.265625 63.738281 -53.675781 69.03125 -48.5 C 74.320312 -43.320312 76.96875 -36.015625 76.96875 -26.578125 C 76.96875 -17.597656 74.320312 -10.40625 69.03125 -5 C 63.738281 0.40625 56.375 3.109375 46.9375 3.109375 C 37.738281 3.109375 30.488281 0.460938 25.1875 -4.828125 C 19.894531 -10.117188 17.25 -17.367188 17.25 -26.578125 Z M 17.25 -26.578125 "/></g></g></g></g></g></svg>