<svg xmlns="http://www.w3.org/2000/svg" xmlns:xlink="http://www.w3.org/1999/xlink" width="500" zoomAndPan="magnify" viewBox="0 0 375 374.999991" height="500" preserveAspectRatio="xMidYMid meet" version="1.0"><defs><g/><clipPath id="76315261e1"><rect x="0" width="176" y="0" height="375"/></clipPath><clipPath id="ec4d362773"><rect x="0" width="340" y="0" height="375"/></clipPath><clipPath id="124ac58b21"><path d="M 300.363281 150.914062 L 313.347656 150.914062 L 313.347656 269.238281 L 300.363281 269.238281 Z M 300.363281 150.914062 " clip-rule="nonzero"/></clipPath><clipPath id="a80ca2f886"><path d="M 0.363281 0.914062 L 13.347656 0.914062 L 13.347656 119.238281 L 0.363281 119.238281 Z M 0.363281 0.914062 " clip-rule="nonzero"/></clipPath><clipPath id="fb3d42f055"><rect x="0" width="14" y="0" height="120"/></clipPath><clipPath id="96f428e110"><path d="M 237.523438 245.5625 L 248.957031 245.5625 L 248.957031 269.238281 L 237.523438 269.238281 Z M 237.523438 245.5625 " clip-rule="nonzero"/></clipPath><clipPath id="62d343f2dc"><path d="M 0.523438 0.5625 L 11.957031 0.5625 L 11.957031 24.238281 L 0.523438 24.238281 Z M 0.523438 0.5625 " clip-rule="nonzero"/></clipPath><clipPath id="61ec62df63"><rect x="0" width="12" y="0" height="25"/></clipPath><clipPath id="b924505d1c"><path d="M 232.726562 90.660156 L 242.789062 90.660156 L 242.789062 146.488281 L 232.726562 146.488281 Z M 232.726562 90.660156 " clip-rule="nonzero"/></clipPath><clipPath id="31516c6f8f"><path d="M 0.726562 0.660156 L 10.789062 0.660156 L 10.789062 56.488281 L 0.726562 56.488281 Z M 0.726562 0.660156 " clip-rule="nonzero"/></clipPath><clipPath id="b098c0e2d9"><rect x="0" width="11" y="0" height="57"/></clipPath></defs><g transform="matrix(1, 0, 0, 1, 199, 0)"><g clip-path="url(#76315261e1)"><g fill="#5ce1e6" fill-opacity="1"><g transform="translate(2.974212, 281.655328)"><g><path d="M 3.546875 -6.703125 L 3.546875 -59.1875 C 3.546875 -59.1875 4.664062 -57.800781 6.90625 -55.03125 C 9.144531 -52.269531 12.957031 -49.441406 18.34375 -46.546875 C 23.738281 -43.660156 31.039062 -42.21875 40.25 -42.21875 C 50.238281 -42.21875 57.925781 -44.78125 63.3125 -49.90625 C 68.707031 -55.039062 71.40625 -62.207031 71.40625 -71.40625 L 71.40625 -202.015625 C 71.40625 -212.796875 70.484375 -221.078125 68.640625 -226.859375 C 66.804688 -232.648438 63.71875 -237.125 59.375 -240.28125 C 55.039062 -243.4375 49.054688 -246.195312 41.421875 -248.5625 L 163.734375 -248.5625 C 156.109375 -246.195312 150.125 -243.4375 145.78125 -240.28125 C 141.445312 -237.125 138.359375 -232.648438 136.515625 -226.859375 C 134.671875 -221.078125 133.75 -212.796875 133.75 -202.015625 L 133.75 -60.359375 C 133.75 -39.847656 127.5 -24.066406 115 -13.015625 C 102.507812 -1.972656 85.742188 3.546875 64.703125 3.546875 C 49.453125 3.546875 37.351562 2.691406 28.40625 0.984375 C 19.46875 -0.722656 13.085938 -2.429688 9.265625 -4.140625 C 5.453125 -5.847656 3.546875 -6.703125 3.546875 -6.703125 Z M 3.546875 -6.703125 "/></g></g></g></g></g><g transform="matrix(1, 0, 0, 1, 0, 0)"><g clip-path="url(#ec4d362773)"><g fill="#0cc0df" fill-opacity="1"><g transform="translate(-7.070735, 336.744574)"><g><path d="M 13.8125 -248.5625 L 136.515625 -248.5625 C 128.890625 -246.195312 122.835938 -243.4375 118.359375 -240.28125 C 113.890625 -237.125 110.734375 -232.648438 108.890625 -226.859375 C 107.054688 -221.078125 106.140625 -212.796875 106.140625 -202.015625 L 106.140625 -132.171875 L 190.953125 -213.0625 C 199.898438 -221.738281 204.375 -228.835938 204.375 -234.359375 C 204.375 -240.671875 198.585938 -245.40625 187.015625 -248.5625 L 327.078125 -248.5625 C 319.972656 -246.988281 313.988281 -245.148438 309.125 -243.046875 C 304.257812 -240.941406 299.457031 -238.046875 294.71875 -234.359375 C 289.988281 -230.679688 284.070312 -225.421875 276.96875 -218.578125 L 198.453125 -142.4375 L 289.203125 -35.515625 C 298.410156 -25.253906 306.628906 -17.359375 313.859375 -11.828125 C 321.097656 -6.304688 329.976562 -2.363281 340.5 0 L 201.21875 0 C 213.84375 -3.414062 220.15625 -8.546875 220.15625 -15.390625 C 220.15625 -20.648438 216.601562 -27.222656 209.5 -35.109375 L 153.875 -99.03125 L 106.140625 -52.46875 L 106.140625 -46.5625 C 106.140625 -35.769531 107.054688 -27.476562 108.890625 -21.6875 C 110.734375 -15.90625 113.890625 -11.503906 118.359375 -8.484375 C 122.835938 -5.460938 128.890625 -2.632812 136.515625 0 L 13.8125 0 C 21.4375 -2.632812 27.414062 -5.460938 31.75 -8.484375 C 36.09375 -11.503906 39.1875 -15.90625 41.03125 -21.6875 C 42.875 -27.476562 43.796875 -35.769531 43.796875 -46.5625 L 43.796875 -202.015625 C 43.796875 -212.796875 42.875 -221.078125 41.03125 -226.859375 C 39.1875 -232.648438 36.09375 -237.125 31.75 -240.28125 C 27.414062 -243.4375 21.4375 -246.195312 13.8125 -248.5625 Z M 13.8125 -248.5625 "/></g></g></g></g></g><g clip-path="url(#124ac58b21)"><g transform="matrix(1, 0, 0, 1, 300, 150)"><g clip-path="url(#fb3d42f055)"><g clip-path="url(#a80ca2f886)"><path fill="#ffffff" d="M 0.363281 0.914062 L 13.347656 0.914062 L 13.347656 119.257812 L 0.363281 119.257812 Z M 0.363281 0.914062 " fill-opacity="1" fill-rule="nonzero"/></g></g></g></g><g clip-path="url(#96f428e110)"><g transform="matrix(1, 0, 0, 1, 237, 245)"><g clip-path="url(#61ec62df63)"><g clip-path="url(#62d343f2dc)"><path fill="#ffffff" d="M 0.523438 0.5625 L 11.957031 0.5625 L 11.957031 24.230469 L 0.523438 24.230469 Z M 0.523438 0.5625 " fill-opacity="1" fill-rule="nonzero"/></g></g></g></g><g clip-path="url(#b924505d1c)"><g transform="matrix(1, 0, 0, 1, 232, 90)"><g clip-path="url(#b098c0e2d9)"><g clip-path="url(#31516c6f8f)"><path fill="#ffffff" d="M 0.726562 0.660156 L 10.789062 0.660156 L 10.789062 56.507812 L 0.726562 56.507812 Z M 0.726562 0.660156 " fill-opacity="1" fill-rule="nonzero"/></g></g></g></g></svg>